<svg xmlns="http://www.w3.org/2000/svg" width="225.757" height="69.936" viewBox="0 0 225.757 69.936"><defs><style>.a{fill:#52c6e5;}</style></defs><rect class="a" width="4.089" height="36.263" transform="translate(110.129)"/><path class="a" d="M210.416,30.474a4.6,4.6,0,0,0,.026-.517,12.591,12.591,0,1,0-12.587,12.594c6.507,0,10.916-3.656,12.562-8.683l-4.077.013c-1.1,2.233-3.681,4.491-8.153,4.491-5.289,0-8.855-4.281-8.855-7.854Zm-12.632-8.925h-.313c3.873,0,7.471,2.08,8.664,5.55H189.318a8.641,8.641,0,0,1,8.466-5.55" transform="translate(-67.067 -6.288)"/><path class="a" d="M314,42.518a12.487,12.487,0,0,0,8.747-3.56v3.637h4.083V17.42h-4.083v3.6A12.529,12.529,0,1,0,314,42.518m-.134-20.951c5.244,0,8.874,3.534,8.874,8.434s-3.975,8.383-8.874,8.383A8,8,0,0,1,305.559,30a8.041,8.041,0,0,1,8.307-8.434" transform="translate(-109.137 -6.306)"/><path class="a" d="M252.051,21.012a12.53,12.53,0,1,0,0,17.94v2.412c-.013,4.957-4.038,8.134-9,8.134-3.949,0-7.937-2.5-8.575-6.839H230.36c.651,6.405,6.227,10.935,12.811,10.935,7.018,0,12.964-4.817,12.964-12.23V17.42h-4.083Zm-8.881,17.379a8.548,8.548,0,0,1-8.243-8.383c0-4.9,3.343-8.434,8.243-8.434s8.874,3.534,8.874,8.434-3.975,8.383-8.874,8.383" transform="translate(-83.394 -6.306)"/><path class="a" d="M283.9,21.026V17.3H279.81V42.482H283.9v-12.3a9.691,9.691,0,0,1,8.134-9V17.09a13.808,13.808,0,0,0-8.134,3.936" transform="translate(-101.296 -6.187)"/><rect class="a" width="4.089" height="21.015" transform="translate(100.31 15.267)"/><path class="a" d="M158.976,9.4a2.559,2.559,0,0,1,2.558,2.565,2.434,2.434,0,0,1-.746,1.786,2.541,2.541,0,0,1-3.611,0,2.434,2.434,0,0,1-.746-1.786A2.559,2.559,0,0,1,158.976,9.4" transform="translate(-56.63 -3.403)"/><path class="a" d="M349.8,16.794v-.032a.661.661,0,0,0,.53-.606.642.642,0,0,0-.262-.542,1.342,1.342,0,0,0-.874-.2,6.885,6.885,0,0,0-.983.077v2.546h.593V17.024h.274c.325,0,.485.121.53.389a1.96,1.96,0,0,0,.2.619h.619a2.227,2.227,0,0,1-.185-.619c-.064-.338-.191-.542-.44-.619m-.664-.262h-.281v-.727a1.238,1.238,0,0,1,.325-.032c.37,0,.542.159.542.389.006.262-.255.37-.587.37" transform="translate(-126.057 -5.579)"/><path class="a" d="M348.3,13.47a2.556,2.556,0,1,0,2.59,2.546,2.571,2.571,0,0,0-2.59-2.546m0,4.574h0a2.037,2.037,0,1,1,1.933-2.022,1.937,1.937,0,0,1-1.933,2.022" transform="translate(-125.134 -4.876)"/><path class="a" d="M5.959,15.569a36.568,36.568,0,0,0,71.257-.089l5.959,2.169A42.869,42.869,0,0,1,0,17.732Z" transform="translate(0 -5.604)"/><path class="a" d="M74.994,6.975a22.948,22.948,0,0,1-45.354.089l5.416-1.971a20.985,20.985,0,0,0,17.251,9.015,20.981,20.981,0,0,0,17.309-9.1Z" transform="translate(-10.73 -1.814)"/><path class="a" d="M187.093,90.529a3.16,3.16,0,0,0-1.174-.963,3.533,3.533,0,0,0-1.525-.325,3.7,3.7,0,0,0-1.857.466,5.054,5.054,0,0,0-1.187.944l-.1-.785a.583.583,0,0,0-.593-.459H179.52v12.836h1.952V98.325a3.442,3.442,0,0,0,.868.581,3.692,3.692,0,0,0,1.55.3,3.946,3.946,0,0,0,1.761-.389,3.9,3.9,0,0,0,1.321-1.065,4.842,4.842,0,0,0,.823-1.595,6.752,6.752,0,0,0,.287-1.971,8.013,8.013,0,0,0-.255-2.1,4.521,4.521,0,0,0-.734-1.557m-1.021,3.656a4.255,4.255,0,0,1-.67,2.571,2.2,2.2,0,0,1-1.882.874,2.747,2.747,0,0,1-1.142-.236,2.459,2.459,0,0,1-.906-.772V92.2a3.954,3.954,0,0,1,1.04-.963,2.508,2.508,0,0,1,1.327-.345,2.442,2.442,0,0,1,.944.179,1.646,1.646,0,0,1,.683.561,2.9,2.9,0,0,1,.44,1.021,5.948,5.948,0,0,1,.166,1.531" transform="translate(-64.989 -32.306)"/><path class="a" d="M202.921,94.218a1.131,1.131,0,0,0,.108-.6,5.272,5.272,0,0,0-.3-1.831,3.888,3.888,0,0,0-.842-1.365,3.578,3.578,0,0,0-1.282-.849A4.288,4.288,0,0,0,199,89.28a4.7,4.7,0,0,0-1.888.37,4.132,4.132,0,0,0-1.429,1.014,4.435,4.435,0,0,0-.893,1.525,5.653,5.653,0,0,0-.306,1.882,6.5,6.5,0,0,0,.344,2.195,4.543,4.543,0,0,0,.963,1.62,4.092,4.092,0,0,0,1.467,1,4.962,4.962,0,0,0,1.844.338,6.638,6.638,0,0,0,1.053-.089,6.549,6.549,0,0,0,1.027-.268,4.434,4.434,0,0,0,.938-.466,3.248,3.248,0,0,0,.766-.67l.077-.1-.53-.7c-.179-.255-.5-.325-.9-.057-.14.089-.319.191-.523.3a4.422,4.422,0,0,1-.746.3,3.414,3.414,0,0,1-1.021.134,3.086,3.086,0,0,1-1.142-.2,2.366,2.366,0,0,1-.868-.612,3.025,3.025,0,0,1-.581-1.04,4.813,4.813,0,0,1-.223-1.34h6.067a.483.483,0,0,0,.427-.2m-1.684-1.136H196.49a2.977,2.977,0,0,1,.778-1.64,2.377,2.377,0,0,1,1.767-.644,2.278,2.278,0,0,1,.938.179,1.99,1.99,0,0,1,.689.5,2.3,2.3,0,0,1,.434.766,3.142,3.142,0,0,1,.14.842" transform="translate(-70.405 -32.321)"/><path class="a" d="M217.94,90.3a2.827,2.827,0,0,0-1.034-.766,3.527,3.527,0,0,0-1.416-.268,3.738,3.738,0,0,0-1.818.434,5.362,5.362,0,0,0-1.174.887l-.089-.715a.583.583,0,0,0-.593-.459H210.68v9.672h1.952V92.1a4.356,4.356,0,0,1,1.091-.874,2.655,2.655,0,0,1,1.289-.332,1.659,1.659,0,0,1,1.365.53,2.376,2.376,0,0,1,.447,1.55v6.112h1.952V92.977a5.069,5.069,0,0,0-.211-1.5,3.339,3.339,0,0,0-.625-1.174" transform="translate(-76.269 -32.317)"/><path class="a" d="M231.688,94.3a3.412,3.412,0,0,0-.81-.485c-.293-.121-.6-.236-.906-.345s-.606-.2-.893-.287a4.869,4.869,0,0,1-.753-.3,1.666,1.666,0,0,1-.5-.383.727.727,0,0,1-.172-.5,1.015,1.015,0,0,1,.108-.459,1.107,1.107,0,0,1,.319-.376,1.71,1.71,0,0,1,.517-.262,2.355,2.355,0,0,1,.7-.1,2.574,2.574,0,0,1,.785.1,4.506,4.506,0,0,1,.581.217c.166.083.306.16.421.223.389.223.708.134.868-.16l.434-.708-.089-.089a4,4,0,0,0-1.321-.829,4.7,4.7,0,0,0-1.716-.3,4.373,4.373,0,0,0-1.467.23,3.3,3.3,0,0,0-1.091.625,2.743,2.743,0,0,0-.689.919,2.707,2.707,0,0,0-.236,1.091A2.482,2.482,0,0,0,226,93.215a2.311,2.311,0,0,0,.587.759,3.289,3.289,0,0,0,.817.5c.3.128.6.242.912.345s.606.191.9.281a4.4,4.4,0,0,1,.753.3,1.6,1.6,0,0,1,.5.4.825.825,0,0,1,.172.542,1.35,1.35,0,0,1-.1.53,1.2,1.2,0,0,1-.313.434,1.682,1.682,0,0,1-.549.306,2.462,2.462,0,0,1-.791.115A2.679,2.679,0,0,1,228,97.6a3.445,3.445,0,0,1-.612-.274c-.172-.1-.319-.2-.44-.281a.718.718,0,0,0-.791-.07.663.663,0,0,0-.223.236l-.453.74.1.083a4.721,4.721,0,0,0,1.391.849,5.253,5.253,0,0,0,3.394.1,3.5,3.5,0,0,0,1.161-.664,2.691,2.691,0,0,0,.721-1.008,3.245,3.245,0,0,0,.242-1.257,2.266,2.266,0,0,0-.223-1.034,1.992,1.992,0,0,0-.574-.715" transform="translate(-81.627 -32.313)"/><path class="a" d="M246.761,94.218a1.131,1.131,0,0,0,.108-.6,5.273,5.273,0,0,0-.3-1.831,3.888,3.888,0,0,0-.842-1.365,3.578,3.578,0,0,0-1.282-.849,4.288,4.288,0,0,0-1.608-.293,4.7,4.7,0,0,0-1.888.37,4.132,4.132,0,0,0-1.429,1.014,4.435,4.435,0,0,0-.893,1.525,5.653,5.653,0,0,0-.306,1.882,6.5,6.5,0,0,0,.344,2.195,4.543,4.543,0,0,0,.963,1.62,4.092,4.092,0,0,0,1.467,1,4.962,4.962,0,0,0,1.844.338,6.638,6.638,0,0,0,1.053-.089,6.549,6.549,0,0,0,1.027-.268,4.433,4.433,0,0,0,.938-.466,3.248,3.248,0,0,0,.766-.67l.077-.1-.53-.7c-.179-.255-.5-.325-.9-.057-.14.089-.319.191-.523.3a4.423,4.423,0,0,1-.746.3,3.414,3.414,0,0,1-1.021.134,3.086,3.086,0,0,1-1.142-.2,2.366,2.366,0,0,1-.868-.612,3.024,3.024,0,0,1-.581-1.04,4.813,4.813,0,0,1-.223-1.34h6.067a.491.491,0,0,0,.427-.2m-1.684-1.136h-4.753a2.977,2.977,0,0,1,.778-1.64,2.377,2.377,0,0,1,1.767-.644,2.278,2.278,0,0,1,.938.179,1.99,1.99,0,0,1,.689.5,2.3,2.3,0,0,1,.434.766,2.906,2.906,0,0,1,.147.842" transform="translate(-86.276 -32.321)"/><rect class="a" width="1.952" height="13.914" transform="translate(175.497 52.857)"/><path class="a" d="M287.906,86.067a1.08,1.08,0,0,0,.3-.236l2.386-2.641h-1.959a.957.957,0,0,0-.53.121,1.132,1.132,0,0,0-.332.357l-1.512,2.469h1.257a.8.8,0,0,0,.389-.07" transform="translate(-103.631 -30.116)"/><path class="a" d="M289.607,94.218a1.132,1.132,0,0,0,.108-.6,5.272,5.272,0,0,0-.3-1.831,3.888,3.888,0,0,0-.842-1.365,3.578,3.578,0,0,0-1.282-.849,4.288,4.288,0,0,0-1.608-.293,4.7,4.7,0,0,0-1.888.37,4.131,4.131,0,0,0-1.429,1.014,4.435,4.435,0,0,0-.893,1.525,5.654,5.654,0,0,0-.313,1.882,6.494,6.494,0,0,0,.345,2.195,4.542,4.542,0,0,0,.963,1.62,4.148,4.148,0,0,0,1.467,1,4.962,4.962,0,0,0,1.844.338,6.217,6.217,0,0,0,2.08-.357,4.435,4.435,0,0,0,.938-.466,3.249,3.249,0,0,0,.766-.67l.077-.1-.536-.7c-.179-.255-.491-.325-.9-.057-.14.089-.319.191-.523.3a4.422,4.422,0,0,1-.746.3,3.414,3.414,0,0,1-1.021.134,3.086,3.086,0,0,1-1.142-.2,2.366,2.366,0,0,1-.868-.612,3.024,3.024,0,0,1-.581-1.04,4.813,4.813,0,0,1-.223-1.34h6.067a.491.491,0,0,0,.44-.2m-1.678-1.136h-4.747a2.977,2.977,0,0,1,.778-1.64,2.387,2.387,0,0,1,1.767-.644,2.278,2.278,0,0,1,.938.179,1.932,1.932,0,0,1,.689.5,2.2,2.2,0,0,1,.434.766,3.414,3.414,0,0,1,.14.842" transform="translate(-101.784 -32.321)"/><path class="a" d="M310.139,91.424a3.181,3.181,0,0,0-.644-1.168,2.79,2.79,0,0,0-1.04-.727,3.577,3.577,0,0,0-1.372-.249,4,4,0,0,0-.951.115,3.006,3.006,0,0,0-.887.37,3.122,3.122,0,0,0-1.129,1.2,2.917,2.917,0,0,0-.759-1.116,2.362,2.362,0,0,0-1.64-.568,2.944,2.944,0,0,0-1.576.427,4.813,4.813,0,0,0-.97.81l-.083-.638a.583.583,0,0,0-.593-.459H297.36v9.665h1.952V92.017a3.483,3.483,0,0,1,.88-.81,1.939,1.939,0,0,1,1.046-.306,1.427,1.427,0,0,1,1.2.5,2.509,2.509,0,0,1,.415,1.582v6.112h1.952V92.98a2.519,2.519,0,0,1,.153-.919,1.976,1.976,0,0,1,.4-.644,1.642,1.642,0,0,1,.587-.383,1.922,1.922,0,0,1,.715-.134,1.565,1.565,0,0,1,1.276.51,2.4,2.4,0,0,1,.447,1.569v6.112h1.952V92.98a4.415,4.415,0,0,0-.2-1.557" transform="translate(-107.649 -32.321)"/><path class="a" d="M264.936,89.888l-.064.408a3.873,3.873,0,0,0-.957-.708,3.542,3.542,0,0,0-1.608-.338,3.809,3.809,0,0,0-3.088,1.461,4.848,4.848,0,0,0-.823,1.595,6.544,6.544,0,0,0-.287,1.971,8.013,8.013,0,0,0,.255,2.1,4.664,4.664,0,0,0,.734,1.55,3.193,3.193,0,0,0,1.174.957,3.533,3.533,0,0,0,1.525.325,3.7,3.7,0,0,0,1.8-.434,4.858,4.858,0,0,0,1.11-.842v1.148h1.952V89.41h-1.136a.579.579,0,0,0-.587.478m-.223,1.952v4.421a3.954,3.954,0,0,1-1.04.963,2.508,2.508,0,0,1-1.327.345,2.452,2.452,0,0,1-.951-.179,1.646,1.646,0,0,1-.683-.561,2.8,2.8,0,0,1-.434-1.014,6.63,6.63,0,0,1-.153-1.531,4.22,4.22,0,0,1,.67-2.565,2.2,2.2,0,0,1,1.888-.874,2.665,2.665,0,0,1,1.136.242,2.434,2.434,0,0,1,.893.753" transform="translate(-93.44 -32.31)"/></svg>